HIERARCHY
ROOT Hips
{
  OFFSET 51.6663 55.696 -14.1271
  CHANNELS 6 Xposition Yposition Zposition Zrotation Xrotation Yrotation
  JOINT spine
  {
    OFFSET 0 7.96568 0.458067
    CHANNELS 3 Zrotation Xrotation Yrotation
    JOINT spine1
    {
      OFFSET 0 10.2431 0
      CHANNELS 3 Zrotation Xrotation Yrotation
      JOINT spine2
      {
        OFFSET 0 9.81475 0
        CHANNELS 3 Zrotation Xrotation Yrotation
        JOINT Neck
        {
          OFFSET 0 25.1986 1.20138
          CHANNELS 3 Zrotation Xrotation Yrotation
          JOINT Head
          {
            OFFSET 0 7.61315 0
            CHANNELS 3 Zrotation Xrotation Yrotation
            End Site
            {
              OFFSET 0 18.4281 -6.07733
            }
          }
        }
        JOINT RightShoulder
        {
          OFFSET -4.1327 10.5992 -0.575451
          CHANNELS 3 Zrotation Xrotation Yrotation
          JOINT RightArm
          {
            OFFSET 0 13.9018 0
            CHANNELS 3 Zrotation Xrotation Yrotation
            JOINT RightArmRoll
            {
              OFFSET 0 7.01788 0
              CHANNELS 3 Zrotation Xrotation Yrotation
              JOINT RightForeArm
              {
                OFFSET 0 20.4406 0
                CHANNELS 3 Zrotation Xrotation Yrotation
                JOINT RightForeArmRoll
                {
                  OFFSET 0 7.87516 0
                  CHANNELS 3 Zrotation Xrotation Yrotation
                  JOINT RightHand
                  {
                    OFFSET 0 15.8037 0
                    CHANNELS 3 Zrotation Xrotation Yrotation
                    End Site
                    {
                      OFFSET 0 0 0
                    }
                  }
                }
              }
            }
          }
        }
        JOINT LeftShoulder
        {
          OFFSET 4.1327 10.5992 -0.575451
          CHANNELS 3 Zrotation Xrotation Yrotation
          JOINT LeftArm
          {
            OFFSET 0 13.9018 0
            CHANNELS 3 Zrotation Xrotation Yrotation
            JOINT LeftArmRoll
            {
              OFFSET 0 7.01788 0
              CHANNELS 3 Zrotation Xrotation Yrotation
              JOINT LeftForeArm
              {
                OFFSET 0 20.4406 0
                CHANNELS 3 Zrotation Xrotation Yrotation
                JOINT LeftForeArmRoll
                {
                  OFFSET 0 7.87515 0
                  CHANNELS 3 Zrotation Xrotation Yrotation
                  JOINT LeftHand
                  {
                    OFFSET 0 15.8037 0
                    CHANNELS 3 Zrotation Xrotation Yrotation
                    End Site
                    {
                      OFFSET 0 0 0
                    }
                  }
                }
              }
            }
          }
        }
      }
    }
  }
  JOINT RightUpLeg
  {
    OFFSET -7.06048 -1.2947 -1.0861
    CHANNELS 3 Zrotation Xrotation Yrotation
    JOINT RightUpLegRoll
    {
      OFFSET 0 18.5308 0
      CHANNELS 3 Zrotation Xrotation Yrotation
      JOINT RightLeg
      {
        OFFSET 0 -22.9476 0
        CHANNELS 3 Zrotation Xrotation Yrotation
        JOINT RightLegRoll
        {
          OFFSET 0 23.0226 0
          CHANNELS 3 Zrotation Xrotation Yrotation
          JOINT RightFoot
          {
            OFFSET 0 19.1625 0
            CHANNELS 3 Zrotation Xrotation Yrotation
            JOINT RightToeBase
            {
              OFFSET 0 16.0188 0
              CHANNELS 3 Zrotation Xrotation Yrotation
              End Site
              {
                OFFSET 0.00678979 7.75782 -0.894206
              }
            }
          }
        }
      }
    }
  }
  JOINT LeftUpLeg
  {
    OFFSET 7.06048 -1.2947 -1.0861
    CHANNELS 3 Zrotation Xrotation Yrotation
    JOINT LeftUpLegRoll
    {
      OFFSET 0 18.5309 0
      CHANNELS 3 Zrotation Xrotation Yrotation
      JOINT LeftLeg
      {
        OFFSET 0 22.9475 0
        CHANNELS 3 Zrotation Xrotation Yrotation
        JOINT LeftLegRoll
        {
          OFFSET 0 23.2355 0
          CHANNELS 3 Zrotation Xrotation Yrotation
          JOINT LeftFoot
          {
            OFFSET 0 18.9496 0
            CHANNELS 3 Zrotation Xrotation Yrotation
            JOINT LeftToeBase
            {
              OFFSET 0 16.0188 0
              CHANNELS 3 Zrotation Xrotation Yrotation
              End Site
              {
                OFFSET -0.0304289 7.75782 -0.894206
              }
            }
          }
        }
      }
    }
  }
}
MOTION
Frames: 4
Frame Time: 0.00208333
52.2527 95.7306 31.488 -0.24452 -1.20488 4.57156 0.138811 -1.8364 0.0229822 0.267754 0.330037 0.0325698 0.267483 1.97511 0.0281007 2.16548 21.6665 -1.51405 -0.01438 -4.08813 -0.782443 71.2233 1.94311 -0.548873 104.74 20.0776 19.1959 -3.34267e-006 5.90624e-007 -1.20464e-006 3.73214 0.0320177 -0.362833 1.17024e-005 1.65993e-006 -3.05669 8.02977 -4.9514 0.697666 -69.8809 0.59717 1.02721 -109.404 18.0317 -10.6171 -1.06024e-005 7.04071e-007 2.72267e-007 -8.88532 5.4289 0.408486 6.38249e-007 -2.39385e-006 3.00736 -8.02904 -4.95144 -0.697682 178.353 0.314409 -3.64346 180 7.01539e-015 178.889 177.912 7.11442 179.531 -4.82521e-006 -4.49343e-006 0.11967 -19.5317 68.901 20.3141 8.13649 25.2327 -3.48774 -175.891 1.67887 1.7419 4.54188e-006 -4.6773e-006 -1.11718 -1.55682 -8.34269 0.159196 7.92036e-007 2.66559e-006 -0.125526 19.3665 68.6732 -20.1289 -8.13649 25.2327 3.48774 
52.2367 95.7428 31.4966 -0.244563 -1.19664 4.57729 0.138555 -1.82922 0.0253841 0.268681 0.344415 0.0374146 0.268352 1.98949 0.0329316 2.16573 21.6185 -1.5262 -0.0153717 -4.05475 -0.79556 71.2061 1.92595 -0.554799 104.768 20.1056 19.1591 -3.34267e-006 5.90624e-007 -1.20464e-006 3.74221 0.0320173 -0.362838 1.17024e-005 1.65993e-006 -3.05669 8.02977 -4.9514 0.697666 -69.8555 0.596594 1.02454 -109.459 18.0803 -10.6098 -1.06024e-005 7.04071e-007 2.72267e-007 -8.84143 5.41252 0.40315 6.38249e-007 -2.39385e-006 3.00736 -8.02904 -4.95144 -0.697682 178.354 0.337897 -3.64833 180 7.01539e-015 178.889 177.916 7.12022 179.531 -4.82521e-006 -4.49343e-006 0.119626 -19.5306 68.8998 20.3129 8.13649 25.2327 -3.48774 -175.892 1.69385 1.7426 4.54188e-006 -4.6773e-006 -1.11693 -1.55762 -8.32889 0.15945 7.92036e-007 2.66559e-006 -0.125528 19.352 68.6571 -20.1137 -8.13649 25.2327 3.48774 
52.2401 95.7375 31.4628 -0.244724 -1.18986 4.58281 0.138331 -1.82173 0.0279697 0.269704 0.359383 0.0426512 0.269315 2.00445 0.038153 2.1668 21.5687 -1.53927 -0.0169664 -4.02015 -0.809428 71.1886 1.90777 -0.561169 104.796 20.1333 19.1221 -3.34267e-006 5.90624e-007 -1.20464e-006 3.75249 0.032017 -0.362844 1.17024e-005 1.65993e-006 -3.05669 8.02977 -4.9514 0.697666 -69.8289 0.59631 1.02157 -109.515 18.1275 -10.6011 -1.06024e-005 7.04071e-007 2.72267e-007 -8.7989 5.39866 0.398055 6.38249e-007 -2.39385e-006 3.00736 -8.02904 -4.95144 -0.697682 178.356 0.359205 -3.65335 180 7.01539e-015 178.889 177.92 7.12527 179.53 -4.82521e-006 -4.49343e-006 0.119559 -19.5293 68.8983 20.3115 8.13649 25.2327 -3.48774 -175.892 1.70633 1.7427 4.54188e-006 -4.6773e-006 -1.11673 -1.55867 -8.3139 0.159698 7.92036e-007 2.66559e-006 -0.125531 19.337 68.6404 -20.0978 -8.13649 25.2327 3.48774 
52.2325 95.7316 31.456 -0.244966 -1.1841 4.58818 0.138128 -1.81405 0.0306839 0.270794 0.374763 0.0481621 0.270341 2.01983 0.0436476 2.16844 21.5176 -1.55296 -0.0189767 -3.98471 -0.823819 71.1709 1.88888 -0.567849 104.825 20.1609 19.0849 -3.34267e-006 5.90624e-007 -1.20464e-006 3.76293 0.0320166 -0.36285 1.17024e-005 1.65993e-006 -3.05669 8.02977 -4.9514 0.697666 -69.8015 0.596228 1.0184 -109.572 18.1739 -10.5915 -1.06024e-005 7.04071e-007 2.72267e-007 -8.75732 5.38656 0.393128 6.38249e-007 -2.39385e-006 3.00736 -8.02904 -4.95144 -0.697682 178.358 0.378988 -3.65848 180 7.01539e-015 178.889 177.924 7.12975 179.53 -4.82521e-006 -4.49343e-006 0.119475 -19.5278 68.8968 20.3099 8.13649 25.2327 -3.48774 -175.892 1.71706 1.74239 4.54188e-006 -4.6773e-006 -1.11656 -1.55991 -8.29809 0.159941 7.92036e-007 2.66559e-006 -0.125534 19.3216 68.6232 -20.0815 -8.13649 25.2327 3.48774 
